<svg xmlns="http://www.w3.org/2000/svg" width="1250" height="437" viewBox="0 0 1250 437" version="1.1"><path d="M 978.250 138.935 C 956.112 177.293, 938 208.974, 938 209.338 C 938 209.702, 974.337 209.893, 1018.750 209.762 C 1063.162 209.631, 1081.612 209.401, 1059.750 209.250 C 1037.888 209.100, 1020 208.735, 1020 208.440 C 1020 208.145, 1028.554 193.102, 1039.008 175.012 C 1049.463 156.922, 1058.264 141.474, 1058.568 140.684 C 1058.876 139.881, 1050.242 123.888, 1038.964 104.374 C 1027.879 85.193, 1018.739 69.431, 1018.655 69.347 C 1018.570 69.263, 1000.388 100.578, 978.250 138.935" stroke="none" fill="#77b300" fill-rule="evenodd"/><path d="M 1019.167 69.878 C 1019.350 70.361, 1028.496 86.321, 1039.490 105.344 C 1053.970 130.398, 1059.663 139.441, 1060.141 138.148 C 1060.504 137.166, 1069.218 121.796, 1079.505 103.991 C 1089.792 86.187, 1098.435 71.030, 1098.711 70.310 C 1099.121 69.243, 1091.745 69, 1059.024 69 C 1036.370 69, 1018.979 69.383, 1019.167 69.878 M 1119.250 209.749 C 1130.662 209.909, 1149.338 209.909, 1160.750 209.749 C 1172.162 209.588, 1162.825 209.457, 1140 209.457 C 1117.175 209.457, 1107.838 209.588, 1119.250 209.749" stroke="none" fill="#a12b2f" fill-rule="evenodd"/><path d="M 941.674 216.821 C 952.196 235.580, 977.562 278.994, 978 278.994 C 978.438 278.994, 1003.804 235.580, 1014.326 216.821 L 1018.153 210 978 210 L 937.847 210 941.674 216.821" stroke="none" fill="#007836" fill-rule="evenodd"/><path d="M 998.243 244.750 L 978.174 279.500 1018.587 279.761 C 1040.814 279.905, 1077.123 279.905, 1099.273 279.761 L 1139.545 279.500 1119.528 244.750 L 1099.511 210 1058.911 210 L 1018.311 210 998.243 244.750" stroke="none" fill="#0082ca" fill-rule="evenodd"/><path d="M 1100 210.428 C 1100 211.549, 1139.334 279, 1139.987 279 C 1140.659 279, 1180 211.626, 1180 210.476 C 1180 210.214, 1162 210, 1140 210 C 1118 210, 1100 210.193, 1100 210.428" stroke="none" fill="#0b1f8f" fill-rule="evenodd"/><path d="M 1080.500 102.159 C 1070.050 120.273, 1061.005 136.309, 1060.401 137.796 C 1059.382 140.302, 1060.748 142.994, 1079.028 174.500 L 1098.755 208.500 1139.377 208.761 C 1161.720 208.905, 1180 208.845, 1180 208.628 C 1180 208.207, 1103.966 76.303, 1101.164 71.863 L 1099.500 69.226 1080.500 102.159" stroke="none" fill="#cd202c" fill-rule="evenodd"/><path d="M 1039.175 174.616 C 1028.546 193.078, 1020.039 208.372, 1020.270 208.603 C 1020.501 208.834, 1038.213 208.906, 1059.629 208.762 L 1098.568 208.500 1079.092 174.750 C 1068.380 156.188, 1059.365 141.011, 1059.058 141.024 C 1058.751 141.037, 1049.804 156.154, 1039.175 174.616" stroke="none" fill="#ffffff" fill-rule="evenodd"/><path d="M 978.250 138.935 C 956.112 177.293, 938 208.974, 938 209.338 C 938 209.702, 974.337 209.893, 1018.750 209.762 C 1063.162 209.631, 1081.612 209.401, 1059.750 209.250 C 1037.888 209.100, 1020 208.735, 1020 208.440 C 1020 208.145, 1028.554 193.102, 1039.008 175.012 C 1049.463 156.922, 1058.264 141.474, 1058.568 140.684 C 1058.876 139.881, 1050.242 123.888, 1038.964 104.374 C 1027.879 85.193, 1018.739 69.431, 1018.655 69.347 C 1018.570 69.263, 1000.388 100.578, 978.250 138.935" stroke="none" fill="#77b300" fill-rule="evenodd"/><path d="M 130.206 113.750 C 129.661 115.263, 116.977 149.350, 102.019 189.500 C 87.061 229.650, 73.544 265.988, 71.981 270.250 L 69.140 278 79.458 278 L 89.776 278 97.138 257.502 L 104.500 237.004 141.008 237.002 L 177.516 237 182.911 252.250 C 185.879 260.637, 189.170 269.863, 190.225 272.750 L 192.144 278 203.188 278 C 213.842 278, 214.214 277.927, 213.695 275.943 C 213.400 274.812, 199.530 237.237, 182.875 192.443 L 152.592 111 141.894 111 L 131.196 111 130.206 113.750 M 138.745 141.250 C 137.825 144.688, 131.042 163.925, 123.671 184 L 110.269 220.500 125.635 220.775 C 134.086 220.927, 147.924 220.927, 156.387 220.775 L 171.774 220.500 157.937 183 C 150.327 162.375, 143.556 143.137, 142.891 140.250 C 142.226 137.363, 141.397 135, 141.050 135 C 140.703 135, 139.665 137.813, 138.745 141.250 M 273.929 153.367 C 263.813 156.095, 255.112 163.555, 249.701 174.140 L 246.962 179.500 247.451 174 C 247.720 170.975, 248.215 165.463, 248.550 161.750 L 249.159 155 239.080 155 L 229 155 229 216.500 L 229 278 238.913 278 L 248.825 278 249.242 242.750 C 249.621 210.766, 249.855 206.789, 251.768 199.831 C 255.561 186.037, 260.219 178.854, 268.246 174.421 C 272.766 171.925, 274.582 171.518, 281.249 171.510 L 288.997 171.500 288.999 161.750 L 289 152 283.750 152.067 C 280.863 152.105, 276.443 152.690, 273.929 153.367 M 342.500 153.039 C 321.281 156.276, 305.755 168.963, 300.468 187.387 C 299.212 191.764, 298.895 195.740, 299.232 202.887 C 299.847 215.905, 302.503 222.663, 309.919 230.079 L 315.513 235.673 310.762 239.914 C 305.362 244.734, 302.313 252.463, 303.522 258.267 C 304.508 262.999, 308.428 269.218, 311.822 271.435 L 314.783 273.371 310.314 276.331 C 305.181 279.731, 299.049 287.557, 296.649 293.770 C 295.591 296.509, 295 301.023, 295 306.361 C 295 313.650, 295.381 315.443, 298.076 320.835 C 305.020 334.731, 321.218 341.944, 345.566 341.983 C 369.661 342.020, 387.982 335.415, 400.157 322.301 C 405.842 316.177, 408.391 311.331, 409.983 303.617 C 413.061 288.702, 406.337 273.294, 394.004 267.002 C 386.100 262.970, 379.524 262, 360.040 261.994 C 331.661 261.985, 324.834 260.214, 324.192 252.693 C 323.577 245.482, 329.040 240.695, 336.284 242.097 C 342.976 243.392, 356.878 243.096, 364.500 241.496 C 380.575 238.121, 394.345 227.663, 399.011 215.285 C 404.993 199.418, 403.287 183.625, 394.459 173.134 L 391.822 170 402.411 170 L 413 170 413 162.500 L 413 155 399.750 154.969 C 392.462 154.953, 381.100 154.531, 374.500 154.033 C 367.900 153.535, 359.350 152.901, 355.500 152.625 C 351.650 152.350, 345.800 152.536, 342.500 153.039 M 465.870 153.030 C 462.773 153.508, 457.667 154.803, 454.522 155.908 C 437.273 161.970, 423.326 178.404, 418.350 198.528 C 415.860 208.598, 416.109 229.856, 418.837 240.144 C 424.372 261.018, 436.795 274.147, 455.093 278.460 C 463.351 280.407, 477.941 280.417, 485.540 278.482 C 505.331 273.442, 520.269 258.271, 526.867 236.513 C 528.947 229.654, 529.303 226.412, 529.339 214 C 529.370 203.550, 528.904 197.573, 527.671 192.600 C 522.794 172.936, 510.154 159.133, 492.925 154.656 C 485.576 152.746, 472.724 151.974, 465.870 153.030 M 596 153.296 C 584.492 155.935, 574.469 162.968, 567.497 173.294 L 564.260 178.087 564.770 166.544 L 565.279 155 555.639 155 L 546 155 546 216.500 L 546 278 556 278 L 566 278 566.015 243.250 C 566.031 205.518, 566.496 201.169, 571.694 190.182 C 574.823 183.567, 581.728 175.821, 587.466 172.489 C 592.528 169.549, 602.162 167.831, 607.645 168.891 C 614.692 170.254, 618.217 172.956, 621.500 179.510 L 624.500 185.500 624.805 231.750 L 625.110 278 634.598 278 L 644.087 278 643.793 227.750 L 643.500 177.500 640.591 171.200 C 637.101 163.643, 630.099 156.916, 623.244 154.538 C 616.932 152.347, 602.918 151.708, 596 153.296 M 724 153.296 C 712.492 155.935, 702.469 162.968, 695.497 173.294 L 692.260 178.087 692.770 166.544 L 693.279 155 683.639 155 L 674 155 674 216.500 L 674 278 684 278 L 694 278 694.015 243.250 C 694.031 205.518, 694.496 201.169, 699.694 190.182 C 702.823 183.567, 709.728 175.821, 715.466 172.489 C 720.528 169.549, 730.162 167.831, 735.645 168.891 C 742.692 170.254, 746.217 172.956, 749.500 179.510 L 752.500 185.500 752.805 231.750 L 753.110 278 762.598 278 L 772.087 278 771.793 227.750 L 771.500 177.500 768.591 171.200 C 765.101 163.643, 758.099 156.916, 751.244 154.538 C 744.932 152.347, 730.918 151.708, 724 153.296 M 833.536 153.066 C 819.395 155.237, 804.237 166.305, 797.283 179.535 C 791.174 191.160, 789.497 199.477, 789.526 218 C 789.547 232.205, 789.875 235.645, 791.881 242.733 C 799.060 268.106, 816.721 280.056, 846.910 279.965 C 859.667 279.927, 870.516 278.322, 880.511 274.996 L 887.045 272.822 886.473 267.661 C 886.158 264.822, 885.682 261.064, 885.416 259.308 L 884.931 256.116 878.423 258.565 C 857.383 266.484, 833.620 265.214, 822.350 255.568 C 814.492 248.841, 809 233.763, 809 218.912 L 809 213 850 213 L 891 213 891 203.210 C 891 178.098, 880.218 161.211, 860.214 154.991 C 852.955 152.734, 841.217 151.887, 833.536 153.066 M 836.223 168.062 C 830.123 169.264, 822.340 173.782, 818.910 178.113 C 815.820 182.015, 811.658 190.588, 810.591 195.250 L 809.962 198 840.620 198 L 871.279 198 870.687 193.001 C 869.923 186.557, 866.713 179.343, 862.817 175.316 C 857.102 169.410, 845.477 166.239, 836.223 168.062 M 339.324 169.384 C 326.095 173.696, 318.716 183.694, 318.573 197.500 C 318.464 207.985, 320.456 213.565, 326.453 219.574 C 333.007 226.140, 340.653 228.492, 353.179 227.795 C 373.201 226.682, 384.033 214.893, 382.783 195.579 C 382.001 183.507, 376.596 174.962, 367.011 170.644 C 361.284 168.064, 345.568 167.349, 339.324 169.384 M 462.844 170.337 C 445.057 176.968, 436.983 191.230, 437.015 215.960 C 437.038 234.145, 440.710 245.710, 449.135 254.135 C 455.767 260.767, 460.710 262.500, 473 262.500 C 482.439 262.500, 484.009 262.231, 488.540 259.839 C 502.366 252.541, 509.328 237.525, 509.328 215 C 509.328 192.881, 503.007 179.245, 489.500 172.230 C 485.431 170.117, 482.824 169.572, 475.500 169.304 C 469.596 169.087, 465.242 169.442, 462.844 170.337 M 325.646 281.934 C 308.268 295.262, 310.860 315.373, 331 323.474 C 336.519 325.694, 354.091 326.665, 362 325.188 C 381.687 321.508, 391.863 311.602, 390.816 297.132 C 390.283 289.769, 386.800 284.725, 380.108 281.631 C 375.892 279.681, 373.545 279.478, 352.500 279.239 L 329.500 278.977 325.646 281.934 M 585.704 324.440 C 576.471 326.893, 570.706 335.196, 570.706 346.038 C 570.706 354.345, 572.200 358.836, 576.269 362.761 C 580.302 366.651, 583.820 368.006, 589.815 367.978 C 601.968 367.921, 611.010 358.164, 610.994 345.124 C 610.975 329.410, 600.192 320.590, 585.704 324.440 M 888.704 324.440 C 879.229 326.958, 874.058 334.792, 874.022 346.685 C 873.997 354.935, 875.034 358.331, 878.814 362.373 C 886.459 370.550, 900.751 369.743, 908.704 360.684 C 912.307 356.581, 913.989 351.589, 913.989 345 C 913.989 329.425, 903.140 320.604, 888.704 324.440 M 1049.986 323.973 C 1035.609 326.574, 1028.376 345.727, 1036.521 359.625 C 1042.183 369.287, 1058.048 370.897, 1066.834 362.702 C 1077.250 352.986, 1075.283 330.241, 1063.618 325.528 C 1059.347 323.802, 1054.183 323.213, 1049.986 323.973 M 428 345.500 L 428 367 432.500 367 L 437 367 437.007 353.750 L 437.014 340.500 444.573 353.750 L 452.132 367 458.066 367 L 464 367 464 345.500 L 464 324 459.500 324 L 455 324 455 337.734 L 455 351.468 447.250 337.759 L 439.500 324.050 433.750 324.025 L 428 324 428 345.500 M 480.473 340.702 C 477.288 349.941, 473.897 359.637, 472.937 362.250 L 471.192 367 475.938 367 C 480.608 367, 480.702 366.936, 481.882 363 L 483.080 359 490.882 359 L 498.683 359 499.882 363 C 501.073 366.977, 501.109 367, 506.108 367 C 510.466 367, 511.060 366.764, 510.572 365.227 C 510.262 364.251, 506.900 354.689, 503.099 343.977 L 496.189 324.500 491.226 324.202 L 486.263 323.905 480.473 340.702 M 514 328 L 514 332 519 332 L 524 332 524 349.500 L 524 367 528.500 367 L 533 367 533 349.500 L 533 332 538.500 332 L 544 332 544 328 L 544 324 529 324 L 514 324 514 328 M 553 345.500 L 553 367 557.500 367 L 562 367 562 345.500 L 562 324 557.500 324 L 553 324 553 345.500 M 618 345.500 L 618 367 622.471 367 L 626.942 367 627.221 354.012 L 627.500 341.025 634.857 354.012 L 642.214 367 648.107 367 L 654 367 654 345.500 L 654 324 649.500 324 L 645 324 644.987 337.750 L 644.975 351.500 640.737 343.910 C 638.407 339.736, 634.934 333.549, 633.019 330.160 L 629.538 324 623.769 324 L 618 324 618 345.500 M 676.034 326.410 C 674.448 330.582, 662 366.355, 662 366.741 C 662 366.944, 664.100 366.972, 666.666 366.805 C 671.010 366.521, 671.413 366.258, 672.502 363 L 673.672 359.500 681.212 359.210 L 688.751 358.920 690.367 362.960 C 691.952 366.920, 692.082 367, 696.947 367 L 701.910 367 699.599 360.750 C 698.327 357.313, 694.885 347.637, 691.949 339.250 L 686.612 324 681.781 324 C 677.597 324, 676.828 324.322, 676.034 326.410 M 710 345.500 L 710 367 721 367 L 732 367 732 363 L 732 359 725.500 359 L 719 359 719 341.500 L 719 324 714.500 324 L 710 324 710 345.500 M 758 345.500 L 758 367 769 367 L 780 367 780 363 L 780 359 773.500 359 L 767 359 767 341.500 L 767 324 762.500 324 L 758 324 758 345.500 M 799.445 334.750 C 797.371 340.663, 793.974 350.337, 791.897 356.250 L 788.120 367 792.902 367 C 797.614 367, 797.701 366.942, 798.882 363 L 800.080 359 807.882 359 L 815.683 359 816.882 363 C 818.071 366.968, 818.120 367, 823.040 367 C 825.768 367, 828 366.842, 828 366.648 C 828 366.299, 817.408 336.384, 814.404 328.250 C 812.856 324.057, 812.770 324, 808.026 324 L 803.218 324 799.445 334.750 M 836 345.500 L 836 367 842.250 367.101 C 856.399 367.331, 860.771 366.065, 863.974 360.810 C 866.951 355.928, 866.644 350.491, 863.198 347.044 L 860.395 344.242 862.698 341.565 C 865.455 338.360, 865.768 332.542, 863.369 329.117 C 860.739 325.362, 855.991 324, 845.532 324 L 836 324 836 345.500 M 922 345.500 L 922 367 926.500 367 L 931 367 931 358.759 L 931 350.518 936.517 358.759 L 942.035 367 947.605 367 L 953.176 367 948.409 360.250 C 945.788 356.538, 942.809 352.408, 941.789 351.073 C 939.941 348.655, 939.944 348.643, 942.802 347.441 C 947.212 345.587, 950.002 341.381, 949.985 336.615 C 949.951 327.176, 945.240 324.004, 931.250 324.002 L 922 324 922 345.500 M 972.471 325.250 C 972.215 325.938, 968.855 335.637, 965.005 346.805 L 958.005 367.109 962.668 366.805 C 967.009 366.521, 967.413 366.258, 968.505 363 L 969.678 359.500 977.500 359.500 L 985.322 359.500 986.495 363 C 987.612 366.330, 987.919 366.515, 992.820 366.802 L 997.972 367.104 992.881 352.802 C 990.082 344.936, 986.672 335.238, 985.305 331.250 L 982.819 324 977.878 324 C 974.841 324, 972.758 324.482, 972.471 325.250 M 999 328 L 999 332 1004 332 L 1009 332 1009 349.500 L 1009 367 1013.500 367 L 1018 367 1018 349.500 L 1018 332 1023.500 332 L 1029 332 1029 328 L 1029 324 1014 324 L 999 324 999 328 M 1081 345.500 L 1081 367 1085.500 367 L 1090 367 1090 358.759 L 1090 350.518 1095.517 358.759 L 1101.035 367 1106.553 367 C 1112.997 367, 1113.093 367.564, 1104.679 356.012 L 1099.226 348.524 1101.948 347.380 C 1106.407 345.505, 1109 341.354, 1109 336.088 C 1109 327.069, 1104.185 324, 1090.032 324 L 1081 324 1081 345.500 M 1117.001 324.750 C 1117.001 325.163, 1119.926 331.508, 1123.501 338.851 C 1129.711 351.608, 1130 352.530, 1130 359.601 L 1130 367 1134.500 367 L 1139 367 1139 359.485 C 1139 352.318, 1139.272 351.424, 1144.867 340.235 C 1153.213 323.542, 1153.138 324, 1147.507 324 L 1142.879 324 1138.683 333.057 L 1134.486 342.114 1130.525 333.057 L 1126.564 324 1121.782 324 C 1119.152 324, 1117 324.337, 1117.001 324.750 M 846.750 331.692 C 845.382 332.048, 845 333.221, 845 337.073 C 845 341.201, 845.300 342, 846.851 342 C 850.296 342, 854.915 339.843, 855.515 337.954 C 856.247 335.648, 854.428 332, 852.547 332 C 851.786 332, 850.564 331.828, 849.832 331.619 C 849.099 331.409, 847.712 331.442, 846.750 331.692 M 584.707 334.016 C 581.312 336.687, 579.619 342.133, 580.327 348.109 C 581.092 354.575, 582.485 356.887, 586.666 358.634 C 591.375 360.601, 596.434 358.975, 599.074 354.647 C 602.827 348.491, 601.041 335.698, 596.055 333.030 C 592.938 331.362, 587.478 331.836, 584.707 334.016 M 887.669 334.045 C 882.992 337.725, 881.743 346.636, 884.924 353.640 C 887.361 359.007, 891.991 360.866, 897.348 358.628 C 901.891 356.730, 904 352.567, 904 345.500 C 904 339.438, 902.107 334.663, 899.055 333.030 C 895.919 331.351, 890.478 331.836, 887.669 334.045 M 931 337.500 C 931 342.944, 931.030 343, 934 343 C 935.667 343, 937.889 342.111, 939 341 C 943.006 336.994, 940.469 332, 934.429 332 L 931 332 931 337.500 M 1047.707 334.016 C 1042.600 338.033, 1041.490 350.161, 1045.712 355.816 C 1050.067 361.649, 1059.158 360.401, 1062.423 353.522 C 1064.433 349.286, 1064.447 341.743, 1062.452 337.540 C 1059.815 331.983, 1052.511 330.237, 1047.707 334.016 M 1090 337.500 C 1090 342.944, 1090.030 343, 1093 343 C 1096.224 343, 1100 339.998, 1100 337.434 C 1100 333.801, 1098 332, 1093.965 332 L 1090 332 1090 337.500 M 975.487 342.442 C 974.435 345.774, 973.413 349.063, 973.214 349.750 C 972.963 350.620, 974.242 351, 977.427 351 C 979.942 351, 981.998 350.663, 981.996 350.250 C 981.993 349.837, 980.958 346.549, 979.695 342.942 L 977.398 336.383 975.487 342.442 M 488.617 342.832 C 487.582 345.950, 486.521 349.063, 486.260 349.750 C 485.920 350.648, 487.212 351, 490.848 351 L 495.910 351 493.370 344.250 C 491.974 340.538, 490.756 337.425, 490.664 337.332 C 490.573 337.240, 489.651 339.715, 488.617 342.832 M 679.165 342.976 C 677.974 346.503, 677 349.751, 677 350.194 C 677 350.637, 679.055 351, 681.567 351 C 686.686 351, 686.546 351.910, 683.019 341.532 L 681.331 336.564 679.165 342.976 M 805.550 342.762 C 804.556 345.918, 803.527 349.063, 803.264 349.750 C 802.921 350.647, 804.194 351, 807.769 351 L 812.752 351 810.307 344.264 C 808.962 340.560, 807.748 337.415, 807.610 337.276 C 807.471 337.138, 806.544 339.606, 805.550 342.762 M 845 354.500 L 845 360 848.277 360 C 852.858 360, 856 357.550, 856 353.978 C 856 350.536, 853.706 349, 848.566 349 L 845 349 845 354.500" stroke="none" fill="#231f20" fill-rule="evenodd"/><path d="" stroke="none" fill="#2b3224" fill-rule="evenodd"/></svg>